<?xml version="1.0" encoding="UTF-8" standalone="no"?><!-- Generator: Gravit.io --><svg xmlns="http://www.w3.org/2000/svg" xmlns:xlink="http://www.w3.org/1999/xlink" style="isolation:isolate" viewBox="0 0 1920 1280" width="1920pt" height="1280pt"><defs><clipPath id="_clipPath_5Qgp7JaEz2tYiZa1zRy6KLJtlTkdmnrZ"><rect width="1920" height="1280"/></clipPath></defs><g clip-path="url(#_clipPath_5Qgp7JaEz2tYiZa1zRy6KLJtlTkdmnrZ)"><path d=" M 573.096 772.037 Q 585.759 776.217 1654.102 772.037 Q 1649.851 691.342 1654.102 661.336 C 1658.352 631.33 1615.845 525.88 1612.445 511.305 Q 1609.044 496.731 1511.278 555.028 Q 1457.719 603.896 1424.564 611.611 C 1391.408 619.327 1334.449 621.899 1331.899 616.755 Q 1325.097 615.041 1325.948 603.896 C 1326.798 592.75 1409.261 486.443 1437.316 482.156 C 1465.371 477.87 1483.223 420.43 1493.425 399.854 C 1503.627 379.278 1529.981 374.134 1535.932 359.56 Q 1541.883 344.986 1592.892 310.693 Q 1582.69 279.401 1551.235 267.398 C 1519.779 255.396 1473.022 229.676 1467.921 208.672 Q 1462.82 187.668 1405.436 156.804 Q 1378.869 212.316 1367.392 247.68 C 1355.915 283.044 1324.035 373.706 1319.572 375.635 C 1315.108 377.564 1303.631 424.502 1287.691 439.934 C 1271.751 455.365 1244.972 481.728 1227.756 490.087 Q 1210.541 498.446 1199.064 503.589 Q 1192.688 356.345 1194.601 336.412 C 1196.514 316.48 1226.481 185.31 1227.756 175.665 C 1229.032 166.021 1232.22 67.643 1227.756 63.785 C 1223.293 59.927 1118.726 58.641 1102.148 69.572 C 1085.571 80.503 996.306 61.213 991.205 69.572 C 986.104 77.931 988.017 139.658 991.205 151.232 C 994.393 162.806 1044.126 341.637 1043.17 348.147 C 1042.214 354.657 1044.844 423.618 1039.583 434.468 Q 1034.323 445.319 1030.258 521.03 Q 966.622 442.434 949.619 415 C 932.616 387.566 917.881 333.84 914.48 318.98 Q 911.079 304.12 865.739 247.68 Q 845.335 210.387 844.202 189.811 Q 843.068 169.235 824.932 128.084 Q 801.128 126.37 768.256 151.232 C 735.384 176.094 704.779 258.111 687.776 267.398 Q 670.773 276.686 612.964 326.982 L 656.038 368.133 Q 686.643 368.276 687.776 375.635 Q 844.202 516.181 856.671 521.03 C 869.139 525.88 911.079 616.184 907.679 624.185 C 904.278 632.187 777.324 576.176 746.719 572.746 C 716.114 569.317 588.77 535.596 573.096 511.305 C 557.421 487.015 589.16 610.468 584.626 624.185 C 580.092 637.903 560.432 767.858 573.096 772.037 Z " fill="rgb(0,0,0)" vector-effect="non-scaling-stroke" stroke-width="1" stroke="rgb(0,0,0)" stroke-linejoin="miter" stroke-linecap="square" stroke-miterlimit="3"/><path d=" M 833.244 707.178 C 833.244 571.063 969.064 460.556 1136.356 460.556 C 1303.647 460.556 1439.467 571.063 1439.467 707.178 L 833.244 707.178 Z " fill="rgb(0,0,0)"/><path d=" M 595.14 829.904 Q 607.804 834.083 1676.146 829.904 Q 1671.895 749.209 1676.146 719.203 C 1680.397 689.196 1637.89 583.746 1634.489 569.172 Q 1631.089 554.598 1533.323 612.895 Q 1479.764 661.762 1446.608 669.478 C 1413.453 677.194 1356.493 679.766 1353.943 674.622 Q 1347.142 672.907 1347.992 661.762 C 1348.842 650.617 1431.306 544.31 1459.36 540.023 C 1487.415 535.737 1505.268 478.296 1515.47 457.721 C 1525.671 437.145 1552.026 432.001 1557.977 417.427 Q 1563.928 402.852 1614.936 368.56 Q 1604.734 337.267 1573.279 325.265 C 1541.824 313.263 1495.066 287.543 1489.965 266.539 Q 1484.865 245.534 1427.48 214.671 Q 1400.913 270.182 1389.436 305.547 C 1377.96 340.911 1346.079 431.572 1341.616 433.501 C 1337.153 435.43 1325.676 482.369 1309.736 497.8 C 1293.796 513.232 1267.016 539.594 1249.801 547.953 Q 1232.586 556.312 1221.109 561.456 Q 1214.733 414.212 1216.645 394.279 C 1218.558 374.346 1248.526 243.177 1249.801 233.532 C 1251.076 223.887 1254.264 125.51 1249.801 121.652 C 1245.338 117.794 1140.771 116.508 1124.193 127.439 C 1107.615 138.37 1018.35 119.08 1013.25 127.439 C 1008.149 135.798 1010.062 197.525 1013.25 209.098 C 1016.438 220.672 1066.171 399.503 1065.214 406.014 C 1064.258 412.524 1066.888 481.484 1061.628 492.335 Q 1056.368 503.185 1052.303 578.897 Q 988.666 500.301 971.664 472.867 C 954.661 445.432 939.925 391.707 936.524 376.847 Q 933.124 361.987 887.783 305.547 Q 867.38 268.253 866.246 247.678 Q 865.113 227.102 846.976 185.951 Q 823.173 184.236 790.3 209.098 C 757.428 233.961 726.823 315.977 709.821 325.265 Q 692.818 334.553 635.008 384.849 L 678.082 426 Q 708.687 426.143 709.821 433.501 Q 866.246 574.048 878.715 578.897 C 891.184 583.746 933.124 674.051 929.723 682.052 C 926.323 690.054 799.369 634.042 768.764 630.613 C 738.159 627.184 610.815 593.463 595.14 569.172 C 579.466 544.881 611.204 668.335 606.67 682.052 C 602.136 695.769 582.477 825.724 595.14 829.904 Z " fill="rgb(244,135,53)"/><ellipse vector-effect="non-scaling-stroke" cx="965.51076091761" cy="723.9979429602679" rx="45.82599312343052" ry="45.753498515845536" fill="rgb(255,255,255)"/><ellipse vector-effect="non-scaling-stroke" cx="1127.0704375678802" cy="624.6506483805656" rx="45.825993123430635" ry="45.753498515845536" fill="rgb(255,255,255)"/><ellipse vector-effect="non-scaling-stroke" cx="1292.403770901221" cy="709.6465014841359" rx="45.825993123430635" ry="45.753498515845536" fill="rgb(255,255,255)"/><path d=" M 976.533 831.993 C 976.533 744.977 1049.28 674.33 1138.884 674.33 C 1228.488 674.33 1301.234 744.977 1301.234 831.993 L 1138.884 831.993 L 976.533 831.993 Z " fill="rgb(0,0,0)"/><path d=" M 1010.785 854.6 C 1009.417 847.265 1008.703 839.71 1008.703 831.993 C 1008.703 762.558 1066.555 706.16 1137.812 706.16 C 1209.068 706.16 1266.92 762.558 1266.92 831.993 C 1266.92 839.71 1266.206 847.265 1264.838 854.6 L 1010.785 854.6 Z " fill="rgb(244,135,53)"/><text transform="matrix(3.626,0,0,2.369,90.861,800.759)" style="font-family:'Arial';font-weight:700;font-size:53px;font-style:normal;fill:#F48735;stroke:#000000;stroke-width:1;">Casa</text><text transform="matrix(3.816,0,0,2.413,78.436,1033.53)" style="font-family:'Arial';font-weight:700;font-size:108px;font-style:normal;fill:#F48735;stroke:#000000;stroke-width:1;">Guerrero</text><text transform="matrix(5.081,0,0,3.918,1081.244,1121.053)" style="font-family:'Arial';font-weight:400;font-size:21px;font-style:normal;font-variant-ligatures:none;letter-spacing:0.5;fill:#000000;stroke:none;">Departamental</text></g></svg>